<?xml version="1.0" encoding="utf-8"?>
<!-- Generator: Adobe Illustrator 19.0.0, SVG Export Plug-In . SVG Version: 6.00 Build 0)  -->
<svg version="1.1" id="Layer_1" xmlns="http://www.w3.org/2000/svg" xmlns:xlink="http://www.w3.org/1999/xlink" x="0px" y="0px"
	 viewBox="0 0 124 50" style="enable-background:new 0 0 124 50;" xml:space="preserve">
<style type="text/css">
	.st0{fill:#FFFFFF;}
	.st1{clip-path:url(#XMLID_101_);}
	.st2{fill:#4DB757;}
	.st3{fill:#6EC5A5;}
	.st4{fill:#FAAF40;}
	.st5{fill:#009348;}
	.st6{fill:#FFF100;}
	.st7{fill:#00ADEE;}
	.st8{fill:#EC1C24;}
	.st9{fill:#EB008B;}
	.st10{fill:#2E3191;}
	.st11{display:none;fill:#FFFFFF;}
</style>
<g id="XMLID_11_">
	<g id="Logo_9_">
		<circle id="XMLID_9_" class="st0" cx="25.1" cy="25" r="24.6"/>
		<g id="LOGO-Color_02_17_">
			<defs>
				<circle id="XMLID_8_" cx="25.1" cy="25" r="22"/>
			</defs>
			<clipPath id="XMLID_101_">
				<use xlink:href="#XMLID_8_"  style="overflow:visible;"/>
			</clipPath>
			<g id="XMLID_79_" class="st1">
				<g id="XMLID_17_">
					<g id="XMLID_98_">
						<path id="XMLID_27_" class="st2" d="M46.6,20.5c0.3,1.4,0.5,2.9,0.5,4.5c0,6-2.4,11.5-6.4,15.5c-4.9-3.8-8.5-9.1-10.2-15.2
							c0.2-0.1,0.3-0.3,0.5-0.4C36.6,24.4,41.9,22.9,46.6,20.5z"/>
						<path id="XMLID_26_" class="st3" d="M41.2,10c2.7,2.9,4.6,6.5,5.4,10.5c-4.8,2.4-10,3.9-15.6,4.3C35.7,20.9,39.2,15.8,41.2,10
							z"/>
						<path id="XMLID_25_" class="st4" d="M32.9,4.4c3.2,1.2,6.1,3.1,8.3,5.6c-2,5.8-5.5,10.9-10.1,14.8c-0.2,0-0.4,0-0.6,0
							c-0.6-2.3-0.9-4.7-0.9-7.2C29.6,12.9,30.8,8.4,32.9,4.4z"/>
						<path id="XMLID_24_" class="st5" d="M40.7,40.5c-4,4-9.5,6.5-15.6,6.5c-3,0-5.9-0.6-8.5-1.7c-2.6-3.6-4.4-7.9-5-12.5
							c7.2-0.5,13.7-3.2,19-7.5C32.2,31.4,35.9,36.7,40.7,40.5z"/>
						<path id="XMLID_23_" class="st6" d="M30.5,24.9c0.2,0,0.4,0,0.6,0c-0.2,0.1-0.3,0.3-0.5,0.4C30.6,25.1,30.5,25,30.5,24.9z"/>
						<path id="XMLID_22_" class="st7" d="M30.5,24.9c0,0.1,0.1,0.2,0.1,0.4c-5.2,4.3-11.8,7-19,7.5c-0.2-1.2-0.2-2.4-0.2-3.7
							c0-2.3,0.3-4.6,0.8-6.8C17,24,22.1,25,27.4,25C28.4,25,29.5,25,30.5,24.9z"/>
						<path id="XMLID_21_" class="st6" d="M32.9,4.4c-2.1,4-3.3,8.5-3.3,13.3c0,2.5,0.3,4.9,0.9,7.2c-1,0.1-2,0.1-3.1,0.1
							c-5.3,0-10.5-1-15.2-2.7c2.2-8.6,8.3-15.6,16.4-19C30.1,3.5,31.5,3.9,32.9,4.4z"/>
						<path id="XMLID_20_" class="st8" d="M25.1,3c1.2,0,2.4,0.1,3.5,0.3c-8.1,3.3-14.2,10.4-16.4,19c-2.8-1.1-5.5-2.4-8.1-4
							C7,9.4,15.3,3,25.1,3z"/>
						<path id="XMLID_19_" class="st9" d="M11.6,32.8c0.6,4.6,2.4,8.9,5,12.5c-5.6-2.4-10.1-7-12.2-12.8c1.6,0.2,3.2,0.4,4.9,0.4
							C10.1,32.8,10.9,32.8,11.6,32.8z"/>
						<path id="XMLID_18_" class="st10" d="M12.2,22.3c-0.5,2.2-0.8,4.4-0.8,6.8c0,1.3,0.1,2.5,0.2,3.7c-0.8,0.1-1.6,0.1-2.3,0.1
							c-1.7,0-3.3-0.1-4.9-0.4c-0.8-2.3-1.3-4.9-1.3-7.5c0-2.4,0.4-4.6,1.1-6.7C6.7,19.9,9.4,21.2,12.2,22.3z"/>
					</g>
					<g id="XMLID_68_">
						<path id="XMLID_89_" class="st0" d="M35,22.9c-0.9,1-1.9,1.9-2.9,2.8c0,0.1,0.1,0.2,0.1,0.4c5.2-0.6,10.3-2,15-4.4
							c0.8-0.4,1.7-0.9,2.5-1.3c-0.2-1-0.4-1.9-0.7-2.8c-1,0.6-2,1.1-3,1.7C42.5,21,38.8,22.2,35,22.9z"/>
						<path id="XMLID_91_" class="st0" d="M27.3,23.6c-4.6,0-9.2-0.8-13.5-2.2c-0.1,0.4-0.2,0.8-0.3,1.2c-0.1,0.5-0.2,1-0.3,1.5
							c4.3,1.4,8.9,2.2,13.5,2.3c0.8-0.5,1.6-1.1,2.3-1.6c-0.1-0.4-0.2-0.8-0.2-1.1C28.3,23.6,27.8,23.6,27.3,23.6z"/>
						<path id="XMLID_92_" class="st0" d="M10.6,23.1c0.1-0.4,0.2-0.8,0.3-1.2c0.1-0.5,0.3-1,0.4-1.5c-2.2-0.9-4.4-2-6.4-3.3
							c-1-0.6-1.9-1.3-2.8-2c-0.4,0.9-0.7,1.8-1,2.7c0.8,0.5,1.5,1.1,2.3,1.6C5.6,20.9,8.1,22.1,10.6,23.1z"/>
						<path id="XMLID_93_" class="st0" d="M34,5.1c0.4-0.7,0.8-1.5,1.3-2.2c-0.2,0-0.4,0.1-0.6,0.1c-1,0.2-2.1,0.4-3.1,0.7
							c0,0,0,0.1-0.1,0.1c-2.2,4.3-3.4,9.1-3.4,13.9c0,2,0.2,4,0.6,5.9c0.1,0.4,0.2,0.8,0.2,1.1c0.2-0.2,0.5-0.4,0.7-0.5
							c0.2-0.1,0.3-0.3,0.5-0.4c0.4-0.4,0.8-0.7,1.2-1.1c-0.3-1.6-0.5-3.3-0.5-5C30.9,13.3,32,8.9,34,5.1z"/>
						<path id="XMLID_95_" class="st0" d="M32.2,26.1c0-0.1-0.1-0.2-0.1-0.4c-0.1,0.1-0.1,0.1-0.2,0.2c-0.2,0.1-0.3,0.3-0.5,0.4
							c-0.5,0.4-1.1,0.8-1.6,1.2c1.9,5.5,5.4,10.4,10,14c0.8,0.6,1.6,1.2,2.4,1.7c0.7-0.6,1.3-1.3,1.9-2c-0.9-0.5-1.8-1.1-2.6-1.8
							C37.2,36,33.9,31.3,32.2,26.1z"/>
						<path id="XMLID_96_" class="st0" d="M11.2,20.4c-0.2,0.5-0.3,1-0.4,1.5c-0.1,0.4-0.2,0.8-0.3,1.2C10.2,25.1,9.9,27,9.9,29
							c0,0.8,0,1.6,0.1,2.4c0.5,0,1,0,1.4-0.1c0.4,0,0.9-0.1,1.3-0.1c-0.1-0.7-0.1-1.5-0.1-2.2c0-1.7,0.2-3.3,0.5-5
							c0.1-0.5,0.2-1,0.3-1.5c0.1-0.4,0.2-0.8,0.3-1.2c2.3-7.6,7.9-13.8,15.2-16.8c0.8-0.3,1.7-0.6,2.5-0.9c1-0.3,2.1-0.6,3.1-0.7
							c0.2,0,0.4-0.1,0.6-0.1c0.4-0.1,0.8-0.1,1.1-0.1c-1.5-0.8-3.2-1.4-4.9-1.9C30.4,1.1,29.2,1.5,28,2C20,5.3,13.8,12.2,11.2,20.4
							z"/>
						<path id="XMLID_97_" class="st0" d="M17.7,44.5c-2.2-3.1-3.8-6.7-4.5-10.5c-0.5,0.1-1,0.1-1.5,0.1c-0.4,0-0.8,0-1.3,0.1
							c0.8,4.3,2.5,8.4,5,11.9c0.7,1,1.5,2,2.4,2.9c1.7,0.5,3.4,0.8,5.2,1C21,48.4,19.2,46.6,17.7,44.5z"/>
						<path id="XMLID_99_" class="st0" d="M9.2,34.2c0.4,0,0.8,0,1.2,0c0.4,0,0.8,0,1.3-0.1c0.5,0,1-0.1,1.5-0.1
							c6-0.7,11.7-2.9,16.6-6.4c0.5-0.4,1.1-0.8,1.6-1.2c0.2-0.1,0.3-0.3,0.5-0.4c0.1-0.1,0.1-0.1,0.2-0.2c1-0.9,2-1.8,2.9-2.8
							c3.3-3.6,5.9-7.8,7.4-12.5c0.3-0.9,0.6-1.8,0.8-2.7c-0.7-0.8-1.5-1.5-2.3-2.2c-0.3,1.3-0.6,2.7-1.1,3.9
							c-1.7,5-4.6,9.5-8.5,13.1c-0.4,0.4-0.8,0.7-1.2,1.1c-0.2,0.1-0.3,0.3-0.5,0.4c-0.2,0.2-0.5,0.4-0.7,0.5
							c-0.8,0.6-1.5,1.1-2.3,1.6c-4.2,2.7-8.9,4.4-13.8,4.9c-0.4,0-0.9,0.1-1.3,0.1c-0.5,0-1,0-1.4,0.1c-1.9,0-3.7-0.1-5.5-0.3
							c-1.4-0.2-2.7-0.5-4-0.8c0.2,1,0.5,2.1,0.9,3.1c0.9,0.2,1.8,0.4,2.7,0.5C5.8,34.1,7.5,34.2,9.2,34.2z"/>
					</g>
				</g>
			</g>
		</g>
		<circle id="XMLID_7_" class="st11" cx="25" cy="24.6" r="19.3"/>
	</g>
	<g id="XMLID_10_">
		<g id="XMLID_110_">
			<path id="XMLID_124_" class="st0" d="M71.8,21.8c0,0.3-0.1,0.5-0.3,0.7c-1.4,1.1-2.9,1.7-4.7,1.7c-2.1,0-3.8-0.7-5.2-2.2
				c-1.4-1.4-2.2-3.2-2.2-5.2c0-2,0.7-3.8,2.2-5.2c1.5-1.5,3.2-2.2,5.2-2.2c1.8,0,3.3,0.6,4.8,1.7c0.2,0.2,0.3,0.4,0.3,0.7
				c0,0.1,0,0.3-0.1,0.4c-0.1,0.1-0.1,0.2-0.2,0.3c-0.1,0.1-0.2,0.2-0.3,0.2c-0.1,0-0.2,0.1-0.4,0.1c-0.3,0-0.5-0.1-0.7-0.3
				c-0.5-0.4-1-0.7-1.6-0.9c-0.6-0.2-1.2-0.3-1.8-0.3c-1.5,0-2.8,0.5-3.9,1.6c-1.1,1.1-1.6,2.3-1.6,3.8c0,1.5,0.5,2.8,1.6,3.9
				c1.1,1.1,2.4,1.6,3.9,1.6c1.1,0,2.1-0.3,3-0.9v-2.9h-2.6c-0.3,0-0.5-0.1-0.7-0.3c-0.2-0.2-0.3-0.4-0.3-0.7c0-0.1,0-0.3,0.1-0.4
				c0.1-0.1,0.1-0.2,0.2-0.3c0.1-0.1,0.2-0.2,0.3-0.2s0.2-0.1,0.4-0.1h3.6c0.1,0,0.3,0,0.4,0.1c0.1,0.1,0.2,0.1,0.3,0.2
				c0.1,0.1,0.2,0.2,0.2,0.3c0.1,0.1,0.1,0.2,0.1,0.4V21.8z"/>
			<path id="XMLID_122_" class="st0" d="M72.8,23.2V10.3c0-0.3,0.1-0.5,0.3-0.7c0.2-0.2,0.4-0.3,0.7-0.3c0.3,0,0.5,0.1,0.7,0.3
				c0.2,0.2,0.3,0.4,0.3,0.7v11.9h0.4c0.3,0,0.5,0.1,0.7,0.3c0.2,0.2,0.3,0.4,0.3,0.7c0,0.3-0.1,0.5-0.3,0.7
				c-0.2,0.2-0.4,0.3-0.7,0.3h-1.4c-0.3,0-0.5-0.1-0.7-0.3C72.9,23.7,72.8,23.5,72.8,23.2z"/>
			<path id="XMLID_119_" class="st0" d="M87.4,19c0,1.4-0.5,2.7-1.5,3.7c-1,1-2.3,1.5-3.7,1.5c-1.4,0-2.7-0.5-3.7-1.5
				c-1-1-1.5-2.2-1.5-3.7c0-1.4,0.5-2.7,1.5-3.7c1-1,2.2-1.5,3.7-1.5c1.4,0,2.6,0.5,3.7,1.5c0.5,0.5,0.9,1.1,1.1,1.7
				C87.2,17.6,87.4,18.3,87.4,19z M82.2,15.7c-0.5,0-0.9,0.1-1.3,0.3c-0.4,0.2-0.7,0.4-1,0.7c-0.3,0.3-0.5,0.6-0.7,1
				c-0.2,0.4-0.3,0.8-0.3,1.3c0,0.4,0.1,0.9,0.3,1.3c0.2,0.4,0.4,0.7,0.7,1c0.3,0.3,0.6,0.5,1,0.7c0.4,0.2,0.8,0.3,1.3,0.3
				c0.5,0,0.9-0.1,1.3-0.3c0.4-0.2,0.7-0.4,1-0.7c0.3-0.3,0.5-0.6,0.7-1c0.2-0.4,0.3-0.8,0.3-1.3c0-0.4-0.1-0.9-0.3-1.3
				c-0.2-0.4-0.4-0.7-0.7-1c-0.3-0.3-0.6-0.5-1-0.7C83.1,15.8,82.6,15.7,82.2,15.7z"/>
			<path id="XMLID_116_" class="st0" d="M90.4,14.9c0.9-0.8,2-1.1,3.3-1.1c1.4,0,2.6,0.5,3.7,1.5c0.5,0.5,0.9,1.1,1.1,1.7
				c0.3,0.6,0.4,1.3,0.4,2c0,1.4-0.5,2.7-1.5,3.7c-1,1-2.3,1.5-3.7,1.5c-1.4,0-2.7-0.5-3.7-1.5c-1-1-1.5-2.2-1.5-3.7v-8.7
				c0-0.3,0.1-0.5,0.3-0.7c0.2-0.2,0.4-0.3,0.7-0.3c0.3,0,0.5,0.1,0.7,0.3c0.2,0.2,0.3,0.4,0.3,0.7V14.9z M93.7,22.2
				c0.5,0,0.9-0.1,1.3-0.3c0.4-0.2,0.7-0.4,1-0.7c0.3-0.3,0.5-0.6,0.7-1c0.2-0.4,0.3-0.8,0.3-1.3c0-0.4-0.1-0.9-0.3-1.3
				c-0.2-0.4-0.4-0.7-0.7-1c-0.3-0.3-0.6-0.5-1-0.7c-0.4-0.2-0.8-0.3-1.3-0.3c-0.5,0-0.9,0.1-1.3,0.3c-0.4,0.2-0.7,0.4-1,0.7
				c-0.3,0.3-0.5,0.6-0.7,1s-0.3,0.8-0.3,1.3c0,0.4,0.1,0.9,0.3,1.3c0.2,0.4,0.4,0.7,0.7,1c0.3,0.3,0.6,0.5,1,0.7
				C92.8,22.1,93.2,22.2,93.7,22.2z"/>
			<path id="XMLID_113_" class="st0" d="M108.4,23.2V23c-0.5,0.4-1,0.7-1.5,0.9c-0.5,0.2-1.1,0.3-1.7,0.3c-1.4,0-2.7-0.5-3.7-1.5
				c-1-1-1.5-2.2-1.5-3.7c0-1.4,0.5-2.7,1.5-3.7c1-1,2.2-1.5,3.7-1.5c1.4,0,2.6,0.5,3.7,1.5c1,1,1.5,2.2,1.5,3.7v4.2
				c0,0.3-0.1,0.5-0.3,0.7c-0.2,0.2-0.4,0.3-0.7,0.3c-0.3,0-0.5-0.1-0.7-0.3C108.5,23.7,108.4,23.5,108.4,23.2z M105.2,15.7
				c-0.5,0-0.9,0.1-1.3,0.3c-0.4,0.2-0.7,0.4-1,0.7c-0.3,0.3-0.5,0.6-0.7,1c-0.2,0.4-0.3,0.8-0.3,1.3c0,0.4,0.1,0.9,0.3,1.3
				c0.2,0.4,0.4,0.7,0.7,1c0.3,0.3,0.6,0.5,1,0.7c0.4,0.2,0.8,0.3,1.3,0.3c0.5,0,0.9-0.1,1.3-0.3c0.4-0.2,0.7-0.4,1-0.7
				c0.3-0.3,0.5-0.6,0.7-1c0.2-0.4,0.3-0.8,0.3-1.3c0-0.4-0.1-0.9-0.3-1.3c-0.2-0.4-0.4-0.7-0.7-1c-0.3-0.3-0.6-0.5-1-0.7
				C106,15.8,105.6,15.7,105.2,15.7z"/>
			<path id="XMLID_111_" class="st0" d="M111.4,23.2V10.3c0-0.3,0.1-0.5,0.3-0.7c0.2-0.2,0.4-0.3,0.7-0.3s0.5,0.1,0.7,0.3
				c0.2,0.2,0.3,0.4,0.3,0.7v11.9h0.4c0.3,0,0.5,0.1,0.7,0.3c0.2,0.2,0.3,0.4,0.3,0.7c0,0.3-0.1,0.5-0.3,0.7
				c-0.2,0.2-0.4,0.3-0.7,0.3h-1.4c-0.3,0-0.5-0.1-0.7-0.3C111.5,23.7,111.4,23.5,111.4,23.2z"/>
		</g>
		<g id="XMLID_66_">
			<path id="XMLID_75_" class="st0" d="M71,29.2c0,0.4,0,0.8-0.1,1.2c-0.1,0.4-0.2,0.8-0.4,1.2c-0.2,0.4-0.4,0.7-0.7,1
				c-0.3,0.3-0.7,0.4-1.1,0.4c-0.2,0-0.4,0-0.4-0.1s-0.1-0.2-0.1-0.4c0-0.1,0-0.3,0-0.5c0-0.2,0-0.4,0-0.6c0-0.2,0-0.4-0.1-0.5
				c-0.1-0.1-0.2-0.2-0.4-0.2c-0.3,0-0.6,0.1-0.9,0.3c-0.3,0.2-0.7,0.5-1,0.8c-0.3,0.3-0.7,0.7-1,1.1c-0.3,0.4-0.6,0.8-0.8,1.3
				c-0.3,0.4-0.4,0.8-0.6,1.2c-0.1,0.4-0.2,0.7-0.2,1c0,0.4,0.1,0.7,0.4,1c0.3,0.2,0.7,0.3,1.2,0.3c0.5,0,1.1-0.1,1.7-0.3
				c0.6-0.2,1.2-0.4,1.8-0.7c0.6-0.3,1.2-0.6,1.7-0.9c0.5-0.3,1-0.6,1.5-0.9c0.4-0.3,0.8-0.5,1.1-0.7c0.3-0.2,0.5-0.3,0.6-0.4
				c0.2-0.1,0.4-0.1,0.5-0.1c0.1,0,0.3,0,0.4,0.1c0.1,0.1,0.2,0.1,0.2,0.2c0.1,0.1,0.1,0.2,0.1,0.3c0,0.1,0,0.2,0,0.3
				c0,0.1,0,0.2,0,0.4c0,0.1-0.1,0.3-0.3,0.5c-0.1,0.1-0.2,0.2-0.6,0.5c-0.3,0.3-0.7,0.6-1.2,1c-0.5,0.4-1.1,0.8-1.7,1.2
				c-0.7,0.4-1.4,0.8-2.1,1.2c-0.7,0.4-1.5,0.7-2.3,0.9c-0.8,0.2-1.6,0.4-2.4,0.4c-0.6,0-1.1-0.1-1.6-0.3c-0.5-0.2-0.8-0.4-1.2-0.8
				c-0.3-0.3-0.6-0.7-0.7-1.1c-0.2-0.4-0.2-0.9-0.2-1.4c0-0.5,0.1-1.1,0.4-1.8c0.2-0.7,0.6-1.4,1-2.1c0.4-0.7,0.9-1.4,1.5-2.1
				c0.6-0.7,1.2-1.3,1.9-1.8c0.7-0.5,1.4-1,2.1-1.3c0.7-0.3,1.5-0.5,2.2-0.5c0.3,0,0.5,0,0.7,0.1c0.2,0.1,0.4,0.1,0.6,0.3
				c0.2,0.1,0.3,0.3,0.4,0.5C71,28.6,71,28.9,71,29.2z"/>
			<path id="XMLID_72_" class="st0" d="M80,27.6c0.4,0,0.9,0.1,1.4,0.2c0.5,0.1,1,0.3,1.4,0.6c0.4,0.3,0.8,0.6,1.1,1.1
				c0.3,0.5,0.4,1,0.4,1.7c0,0.3,0,0.7-0.1,1.2c-0.1,0.4-0.2,0.9-0.4,1.4c0.1,0.1,0.2,0.2,0.4,0.3c0.2,0.1,0.3,0.1,0.5,0.1
				c0.2,0,0.5-0.1,0.8-0.2c0.3-0.1,0.6-0.3,0.9-0.5c0.3-0.2,0.6-0.5,0.9-0.7c0.3-0.3,0.6-0.6,0.9-0.8c0.3-0.3,0.5-0.5,0.8-0.8
				c0.2-0.2,0.4-0.5,0.6-0.6c0.1-0.1,0.2-0.1,0.3-0.1c0.2,0,0.3,0.1,0.4,0.3c0.1,0.2,0.2,0.4,0.2,0.7c0,0.3-0.1,0.7-0.3,1
				c-0.2,0.4-0.5,0.8-1,1.2c-0.3,0.3-0.6,0.7-1,1c-0.4,0.4-0.7,0.8-1.2,1.1c-0.4,0.3-0.8,0.6-1.3,0.9c-0.4,0.2-0.9,0.4-1.3,0.4
				c-0.3,0-0.6,0-0.9-0.1c-0.3-0.1-0.6-0.2-0.9-0.5c-0.4,0.7-0.9,1.2-1.4,1.8c-0.5,0.5-1.1,1-1.8,1.4c-0.7,0.4-1.4,0.7-2.1,0.9
				c-0.8,0.2-1.6,0.3-2.4,0.3c-0.3,0-0.7-0.1-1.1-0.2c-0.4-0.1-0.8-0.3-1.2-0.6c-0.4-0.3-0.7-0.7-1-1.2c-0.3-0.5-0.4-1.1-0.4-1.7
				c0-0.5,0.1-1,0.2-1.7c0.2-0.7,0.4-1.3,0.7-2c0.3-0.7,0.7-1.4,1.2-2.1c0.5-0.7,1-1.3,1.7-1.8c0.7-0.5,1.4-1,2.2-1.3
				C78.1,27.7,79,27.6,80,27.6z M79.1,30.6c-0.5,0-1.1,0.1-1.6,0.4c-0.5,0.3-1,0.6-1.3,1.1c-0.4,0.4-0.7,1-0.9,1.5
				c-0.2,0.6-0.3,1.1-0.3,1.7c0,0.2,0,0.5,0.1,0.7c0,0.3,0.1,0.5,0.2,0.7c0.1,0.2,0.3,0.4,0.5,0.6c0.2,0.2,0.5,0.2,0.8,0.2
				c0.5,0,1.1-0.1,1.6-0.4c0.5-0.3,1-0.7,1.4-1.1c0.4-0.5,0.7-1,0.9-1.6c0.2-0.6,0.3-1.2,0.3-1.8c0-0.2,0-0.5,0-0.7
				c0-0.2-0.1-0.5-0.2-0.7c-0.1-0.2-0.3-0.4-0.5-0.5C79.8,30.7,79.5,30.6,79.1,30.6z"/>
			<path id="XMLID_70_" class="st0" d="M90,29.7c0.2-0.5,0.5-0.9,0.9-1.1c0.3-0.2,0.7-0.4,1-0.4c0.3,0,0.5,0.1,0.7,0.3
				c0.2,0.2,0.3,0.5,0.3,0.9c0,0.2,0,0.3-0.1,0.5c0,0.2-0.1,0.4-0.2,0.6c0.3-0.3,0.6-0.7,1.1-1c0.5-0.3,1-0.7,1.6-0.9
				c0.6-0.3,1.2-0.5,1.8-0.7c0.6-0.2,1.2-0.3,1.7-0.3c0.6,0,1.1,0.1,1.5,0.4c0.4,0.3,0.6,0.8,0.6,1.5c0,0.4-0.1,0.9-0.2,1.3
				c-0.1,0.5-0.3,0.9-0.5,1.4c-0.2,0.5-0.4,0.9-0.7,1.3c-0.3,0.4-0.5,0.8-0.7,1.2c-0.2,0.4-0.5,0.7-0.7,1.1
				c-0.2,0.3-0.4,0.6-0.5,0.8c-0.2,0.2-0.2,0.4-0.2,0.6c0,0.1,0,0.2,0.1,0.2c0.1,0.1,0.2,0.1,0.3,0.1c0.1,0,0.2,0,0.3,0
				c0.1,0,0.2-0.1,0.4-0.2c0.6-0.2,1.3-0.5,1.9-0.9c0.7-0.3,1.3-0.7,1.9-1.1c0.6-0.4,1.2-0.8,1.7-1.2c0.5-0.4,0.9-0.7,1.3-1.1
				c0.1-0.1,0.2-0.1,0.3-0.2c0.1,0,0.2-0.1,0.3-0.1c0.2,0,0.4,0.1,0.5,0.2c0.1,0.2,0.2,0.3,0.2,0.6c0,0.4-0.1,0.8-0.3,1.2
				c-0.2,0.4-0.6,0.9-1.1,1.2c-0.7,0.5-1.3,0.9-1.8,1.3c-0.6,0.4-1.1,0.8-1.7,1.1c-0.6,0.3-1.2,0.7-1.8,1c-0.7,0.3-1.4,0.6-2.3,0.8
				c-0.3,0.1-0.6,0.2-0.8,0.2c-0.3,0-0.5,0.1-0.7,0.1c-0.6,0-1.1-0.2-1.4-0.5c-0.3-0.3-0.4-0.8-0.4-1.4c0-0.1,0-0.2,0-0.2
				c0-0.1,0-0.2,0-0.3c0-0.4,0.1-0.8,0.3-1.2c0.2-0.4,0.4-0.9,0.6-1.3c0.2-0.5,0.5-0.9,0.8-1.4c0.3-0.4,0.5-0.9,0.7-1.3
				c0.2-0.4,0.4-0.8,0.6-1.1c0.2-0.3,0.2-0.6,0.2-0.8c0-0.2,0-0.3-0.1-0.4c-0.1-0.1-0.2-0.2-0.4-0.2c-0.7,0-1.5,0.2-2.1,0.7
				c-0.7,0.4-1.3,1-1.9,1.6c-0.6,0.6-1.1,1.3-1.6,2c-0.5,0.7-0.9,1.4-1.3,1.9c-0.2,0.4-0.4,0.8-0.6,1.2c-0.2,0.4-0.4,0.8-0.6,1.2
				c-0.2,0.4-0.4,0.7-0.7,0.9c-0.3,0.2-0.6,0.4-1,0.4c-0.4,0-0.7-0.1-1-0.4c-0.2-0.3-0.3-0.6-0.3-0.9c0-0.2,0.1-0.5,0.2-1
				c0.2-0.4,0.4-1,0.6-1.5c0.3-0.6,0.5-1.2,0.9-1.9c0.3-0.7,0.6-1.3,1-2c0.3-0.7,0.6-1.3,0.9-1.9C89.6,30.6,89.8,30.1,90,29.7z"/>
			<path id="XMLID_67_" class="st0" d="M114.4,36.7C114.4,36.7,114.4,36.8,114.4,36.7c0,0.1,0,0.2,0,0.2c0,0.2,0.1,0.4,0.2,0.7
				c0.1,0.2,0.3,0.3,0.5,0.3c0.1,0,0.2,0,0.2,0c0.7-0.2,1.3-0.5,2-0.9c0.7-0.4,1.3-0.9,2-1.4c0.6-0.5,1.2-1,1.7-1.6
				c0.5-0.5,1-1,1.3-1.4c0.2-0.2,0.3-0.3,0.5-0.3c0.2,0,0.3,0.1,0.5,0.2c0.1,0.2,0.2,0.4,0.2,0.7c0,0.2-0.1,0.5-0.2,0.8
				c-0.1,0.3-0.3,0.6-0.6,1c-0.7,0.8-1.4,1.5-2.1,2.2c-0.7,0.7-1.4,1.3-2.2,1.9c-0.7,0.5-1.5,1-2.2,1.3c-0.7,0.3-1.4,0.5-2.1,0.5
				c-0.8,0-1.5-0.2-2-0.7c-0.5-0.5-0.7-1.2-0.7-2.2c0-0.1,0-0.1,0-0.2c0-0.1,0-0.1,0-0.2c-0.3,0.5-0.6,0.9-1,1.3
				c-0.4,0.4-0.9,0.7-1.4,1c-0.5,0.3-1,0.5-1.6,0.7c-0.5,0.2-1.1,0.2-1.6,0.2c-0.4,0-0.8-0.1-1.2-0.2c-0.4-0.1-0.7-0.3-0.9-0.6
				c-0.3-0.3-0.5-0.6-0.6-1c-0.1-0.4-0.2-0.9-0.2-1.4c0-1,0.2-1.9,0.5-2.8c0.3-0.9,0.7-1.7,1.2-2.4c0.5-0.7,1.1-1.4,1.7-2
				c0.6-0.6,1.3-1.1,2-1.5c0.7-0.4,1.4-0.7,2.1-1c0.7-0.2,1.3-0.3,1.9-0.3c0.7,0,1.2,0.1,1.7,0.3c0.2,0.1,0.4,0.3,0.6,0.5
				c0-0.1,0.1-0.2,0.1-0.3c0.1-0.3,0.2-0.5,0.3-0.7c0.1-0.2,0.2-0.4,0.2-0.4c0-0.1,0.1-0.3,0.3-0.7c0.2-0.4,0.4-0.8,0.6-1.4
				c0.2-0.5,0.4-1.1,0.7-1.7c0.3-0.6,0.5-1.2,0.7-1.7c0.2-0.5,0.4-1,0.5-1.4c0.2-0.4,0.2-0.6,0.3-0.7c0.1-0.3,0.2-0.6,0.3-0.8
				c0.1-0.3,0.3-0.5,0.5-0.7c0.2-0.2,0.4-0.4,0.7-0.5c0.3-0.1,0.5-0.2,0.9-0.2c0.4,0,0.8,0.1,1.1,0.3c0.3,0.2,0.4,0.6,0.4,1.1
				c0,0.2,0,0.4-0.1,0.7c-0.1,0.2-0.1,0.5-0.2,0.7c-0.1,0.2-0.2,0.4-0.2,0.7c-0.1,0.2-0.2,0.4-0.2,0.6c-0.6,1.2-1.2,2.4-1.8,3.8
				c-0.6,1.4-1.3,2.7-1.9,4.1c-0.6,1.4-1.2,2.7-1.8,4C115.4,34.5,114.9,35.6,114.4,36.7z M113.9,29.9c-0.7,0-1.4,0.2-2.2,0.5
				c-0.9,0.3-1.7,0.8-2.4,1.4c-0.7,0.6-1.4,1.3-1.9,2.2c-0.5,0.9-0.8,1.9-0.9,3c0,0.5,0.2,0.7,0.6,0.7c0.5,0,1-0.1,1.4-0.3
				c0.4-0.2,0.9-0.5,1.3-0.8c0.4-0.3,0.8-0.7,1.1-1.2c0.3-0.4,0.7-0.9,1-1.4c0.3-0.5,0.6-1,0.8-1.4c0.2-0.5,0.4-0.9,0.6-1.3
				c0.1-0.1,0.1-0.3,0.2-0.5C113.7,30.4,113.8,30.2,113.9,29.9z"/>
		</g>
	</g>
</g>
</svg>
